<?xml version="1.0" standalone="no"?>
<!DOCTYPE svg PUBLIC "-//W3C//DTD SVG 20010904//EN"
 "http://www.w3.org/TR/2001/REC-SVG-20010904/DTD/svg10.dtd">
<svg version="1.0" xmlns="http://www.w3.org/2000/svg"
 width="256.000000pt" height="256.000000pt" viewBox="0 0 256.000000 256.000000"
 preserveAspectRatio="xMidYMid meet">
<metadata>
Created by potrace 1.16, written by Peter Selinger 2001-2019
</metadata>
<g transform="translate(0.000000,256.000000) scale(0.100000,-0.100000)"
fill="#000000" stroke="none">
<path d="M1090 2550 c-99 -16 -293 -81 -390 -131 -292 -150 -539 -440 -638
-749 -102 -316 -77 -678 66 -955 133 -257 319 -441 580 -573 241 -122 517
-168 762 -128 370 62 692 269 886 571 106 164 147 267 185 466 29 156 23 387
-14 529 -60 225 -180 439 -339 600 -172 176 -330 266 -598 345 -85 25 -113 28
-270 31 -96 1 -200 -1 -230 -6z m93 -95 c-5 -41 -3 -47 30 -80 48 -48 86 -48
134 0 32 32 35 39 31 81 l-3 47 71 -7 c84 -7 278 -68 380 -119 216 -109 380
-266 516 -495 83 -139 158 -364 158 -474 0 -45 -1 -48 -19 -38 -35 18 -71 11
-102 -19 -37 -38 -39 -88 -6 -127 25 -28 67 -36 114 -20 20 7 21 5 17 -36 -34
-310 -161 -570 -378 -774 -107 -101 -194 -160 -341 -230 -122 -58 -286 -104
-372 -104 -50 0 -53 1 -43 19 15 29 12 83 -6 109 -23 33 -70 54 -104 47 -62
-14 -100 -99 -70 -156 10 -18 7 -19 -38 -19 -27 0 -93 11 -145 24 -401 102
-716 371 -867 739 -43 105 -80 265 -80 342 0 41 2 46 17 40 39 -16 52 -16 83
0 42 21 63 72 49 113 -18 53 -81 78 -130 52 -17 -10 -19 -7 -19 32 0 96 69
323 133 438 189 339 482 564 837 640 47 10 101 19 121 19 l37 1 -5 -45z m119
0 c6 -29 2 -35 -24 -35 -13 0 -18 8 -18 30 0 39 35 43 42 5z m-1154 -1137 c7
-7 12 -20 12 -30 0 -14 -8 -18 -35 -18 -27 0 -35 4 -35 18 0 20 18 42 35 42 6
0 16 -5 23 -12z m2322 -28 c0 -16 -7 -20 -35 -20 -22 0 -35 5 -35 13 0 20 10
27 42 27 21 0 28 -5 28 -20z m-1172 -1157 c-2 -35 -7 -48 -18 -48 -11 0 -16
13 -18 48 -3 42 -1 47 18 47 19 0 21 -5 18 -47z"/>
<path d="M1048 2459 c-22 -12 -24 -39 -3 -39 11 0 15 -11 15 -40 0 -33 3 -40
20 -40 17 0 19 5 14 53 -9 82 -12 86 -46 66z"/>
<path d="M1479 2454 c-10 -12 -10 -17 0 -23 8 -5 10 -21 5 -49 -5 -34 -4 -42
9 -42 17 0 21 11 32 74 4 27 3 41 -7 47 -18 12 -24 11 -39 -7z"/>
<path d="M905 2418 c-11 -6 -23 -16 -27 -22 -9 -14 1 -28 17 -22 10 3 16 -8
20 -39 6 -33 11 -42 22 -38 12 5 14 16 8 56 -9 68 -15 78 -40 65z"/>
<path d="M1633 2423 c-16 -6 -17 -33 -2 -33 11 0 10 -6 -7 -67 -5 -17 -2 -23
10 -23 17 0 29 23 39 77 5 25 2 35 -11 41 -9 5 -23 7 -29 5z"/>
<path d="M1764 2359 c-3 -6 -2 -15 4 -21 7 -7 5 -21 -6 -45 -14 -30 -14 -35
-2 -43 12 -7 20 2 38 43 22 49 22 52 6 64 -22 16 -31 16 -40 2z"/>
<path d="M740 2345 c-14 -17 -7 -30 18 -30 10 0 21 -13 28 -35 6 -19 16 -36
23 -38 21 -7 22 24 2 71 -21 50 -47 61 -71 32z"/>
<path d="M1240 2293 c-206 -11 -405 -84 -575 -210 -282 -209 -440 -578 -395
-923 56 -430 386 -775 823 -862 89 -17 316 -14 403 5 268 60 490 214 640 443
258 393 204 895 -134 1246 -192 200 -485 315 -762 301z m60 -104 c0 -22 -5
-29 -20 -29 -15 0 -20 7 -20 29 0 28 16 44 33 34 4 -2 7 -17 7 -34z m165 -136
c202 -44 399 -192 510 -381 140 -238 140 -543 -1 -782 -107 -184 -309 -330
-518 -375 -117 -26 -313 -17 -421 19 -280 94 -503 350 -546 627 -53 338 122
674 431 829 172 86 347 107 545 63z m-1055 -763 c0 -29 -2 -30 -45 -30 -41 0
-45 2 -45 24 0 26 13 33 63 35 24 1 27 -3 27 -29z m1814 24 c9 -3 16 -17 16
-30 0 -22 -4 -24 -50 -24 -46 0 -50 2 -50 23 0 13 3 27 7 30 8 9 56 9 77 1z"/>
<path d="M1250 1960 c-24 -24 -26 -53 -4 -74 32 -32 84 -8 84 39 0 26 -24 55
-46 55 -8 0 -23 -9 -34 -20z"/>
<path d="M888 1772 l-58 -3 0 -79 c0 -43 -3 -85 -6 -94 -5 -14 16 -16 173 -18
l178 -3 3 -82 3 -83 -116 0 -115 0 0 -105 0 -105 115 0 115 0 0 -210 0 -210
100 0 100 0 0 210 0 210 120 0 120 0 0 105 0 105 -120 0 -120 0 0 80 0 80 93
0 c50 0 129 3 175 7 l82 6 0 92 c0 88 -1 93 -22 98 -24 6 -721 5 -820 -1z"/>
<path d="M570 1475 c0 -24 3 -25 55 -25 l55 0 0 -119 c0 -121 3 -131 41 -131
5 0 9 56 9 125 l0 125 60 0 c57 0 60 1 60 25 l0 25 -140 0 -140 0 0 -25z"/>
<path d="M1760 1435 l0 -65 -35 0 c-31 0 -35 -3 -35 -25 0 -22 4 -25 35 -25
l35 0 0 -61 c0 -57 1 -60 23 -57 20 3 22 8 22 61 l0 57 63 0 62 0 0 -55 c0
-52 1 -55 25 -55 24 0 25 3 25 54 0 45 3 54 20 59 12 3 20 14 20 26 0 14 -6
21 -20 21 -18 0 -20 7 -20 65 0 63 -1 65 -25 65 -24 0 -25 -2 -25 -65 l0 -65
-65 0 -64 0 6 65 6 65 -27 0 c-25 0 -26 -1 -26 -65z"/>
<path d="M1762 1104 c-17 -7 -35 -22 -42 -33 -8 -16 -20 -21 -50 -21 -22 0
-40 5 -40 10 0 23 -41 50 -75 50 -85 0 -118 -107 -44 -145 41 -22 64 -18 97
15 23 22 40 30 66 30 l36 0 -31 -51 c-18 -28 -38 -53 -46 -56 -19 -7 -43 -56
-43 -87 0 -15 12 -34 32 -51 38 -32 81 -29 116 11 30 34 28 67 -7 106 l-29 33
20 27 c16 23 23 26 38 18 51 -27 114 13 114 73 0 64 -52 97 -112 71z m-182
-75 c0 -23 -15 -32 -40 -24 -25 8 -26 41 -3 54 22 12 43 -3 43 -30z m240 6 c0
-32 -28 -45 -46 -21 -17 24 -9 41 21 44 21 1 25 -3 25 -23z m-119 -191 c13
-16 4 -44 -17 -51 -21 -7 -47 23 -40 45 9 26 38 29 57 6z"/>
<path d="M594 1085 c-3 -8 -3 -19 1 -25 8 -13 454 -14 474 -1 8 5 11 16 8 25
-6 14 -35 16 -242 16 -197 0 -237 -2 -241 -15z"/>
<path d="M600 970 c0 -20 4 -20 238 -18 203 3 237 5 237 18 0 13 -34 15 -237
18 -234 2 -238 2 -238 -18z"/>
<path d="M656 881 c-3 -5 -3 -16 0 -25 6 -15 31 -16 213 -14 198 3 206 4 206
23 0 19 -8 20 -207 23 -120 1 -209 -2 -212 -7z"/>
<path d="M792 780 c-13 -6 -22 -16 -20 -22 3 -10 44 -14 148 -16 144 -3 178 4
152 31 -16 15 -246 21 -280 7z"/>
<path d="M1252 678 c-19 -19 -15 -66 8 -78 32 -17 60 4 60 44 0 43 -40 62 -68
34z"/>
<path d="M616 2274 c-22 -22 -20 -33 9 -44 14 -5 27 -20 31 -35 6 -24 27 -34
38 -16 6 9 -45 111 -56 111 -4 0 -14 -7 -22 -16z"/>
<path d="M1890 2276 c0 -8 5 -16 12 -18 8 -3 5 -15 -11 -36 -20 -29 -21 -52
-2 -52 4 0 22 20 39 44 30 42 31 44 13 60 -22 20 -51 21 -51 2z"/>
<path d="M512 2189 c-45 -17 -48 -78 -6 -106 32 -20 72 -10 84 22 19 50 -29
102 -78 84z m48 -44 c15 -18 5 -35 -20 -35 -22 0 -34 15 -26 35 7 19 30 19 46
0z"/>
<path d="M1997 2189 c-26 -15 -36 -49 -25 -81 18 -50 77 -48 103 3 17 33 9 61
-25 79 -23 12 -30 12 -53 -1z m48 -54 c0 -13 -8 -21 -22 -23 -17 -3 -23 2 -23
16 0 10 3 22 7 26 13 13 38 1 38 -19z"/>
<path d="M392 2074 c-46 -32 -17 -114 40 -114 26 0 58 36 58 64 0 24 -41 66
-64 66 -6 0 -22 -7 -34 -16z m56 -37 c15 -17 -1 -40 -24 -35 -27 5 -32 48 -6
48 11 0 24 -6 30 -13z"/>
<path d="M2091 2054 c-24 -30 -25 -38 -11 -65 15 -27 53 -24 84 7 29 30 31 37
16 65 -16 29 -64 25 -89 -7z m63 -19 c4 -13 -20 -35 -38 -35 -11 0 -6 26 6 38
16 16 25 15 32 -3z"/>
<path d="M2182 1954 c-25 -17 -31 -71 -10 -92 19 -19 63 -14 86 11 27 29 28
51 2 77 -24 24 -48 25 -78 4z m63 -33 c7 -12 -22 -41 -41 -41 -14 0 -20 31 -7
43 9 10 41 8 48 -2z"/>
<path d="M287 1943 c-13 -13 -7 -43 9 -43 8 0 31 -12 49 -26 33 -25 56 -25 54
-1 0 12 -83 77 -98 77 -4 0 -11 -3 -14 -7z"/>
<path d="M2250 1820 c-11 -11 -20 -29 -20 -40 0 -26 34 -60 60 -60 23 0 70 42
70 62 0 52 -72 76 -110 38z m65 -36 c0 -22 -32 -31 -49 -14 -8 8 -6 15 9 26
24 18 40 13 40 -12z"/>
<path d="M210 1811 c-16 -31 -12 -40 23 -61 41 -25 73 -25 87 -1 9 17 4 24
-34 50 -52 36 -62 38 -76 12z"/>
<path d="M149 1676 c-16 -35 -3 -75 28 -87 58 -22 111 37 79 86 -13 20 -25 25
-56 25 -33 0 -42 -4 -51 -24z m76 -31 c0 -22 -31 -33 -47 -17 -17 17 -1 44 24
40 15 -2 23 -10 23 -23z"/>
<path d="M2317 1682 c-36 -40 -13 -94 38 -94 51 0 79 48 55 93 -14 25 -71 26
-93 1z m62 -21 c19 -12 6 -41 -19 -41 -25 0 -38 29 -19 41 8 5 16 9 19 9 3 0
11 -4 19 -9z"/>
<path d="M2362 1544 c-24 -17 -30 -62 -10 -82 15 -15 63 -16 89 -2 42 23 10
100 -41 100 -9 0 -26 -7 -38 -16z m63 -35 c9 -14 4 -18 -25 -21 -16 -2 -25 3
-28 15 -3 12 3 17 22 17 14 0 28 -5 31 -11z"/>
<path d="M107 1513 c-3 -17 0 -34 9 -43 11 -11 14 -11 14 -1 0 10 11 12 45 7
41 -7 45 -5 45 13 0 17 -6 21 -35 21 -22 0 -38 6 -41 15 -10 24 -31 17 -37
-12z"/>
<path d="M100 1077 c0 -33 7 -37 38 -21 15 8 39 14 55 14 17 0 27 5 27 15 0
12 -13 15 -60 15 -56 0 -60 -1 -60 -23z"/>
<path d="M2342 1083 c2 -11 14 -18 33 -20 17 -1 42 -4 58 -7 22 -4 27 -2 27
13 0 23 -19 31 -77 31 -37 0 -44 -3 -41 -17z"/>
<path d="M162 998 c-28 -14 -38 -51 -23 -84 15 -33 63 -33 96 1 14 13 25 29
25 35 0 16 -47 60 -62 59 -7 0 -23 -5 -36 -11z m56 -45 c-4 -22 -58 -31 -58
-10 0 20 10 27 37 27 18 0 24 -5 21 -17z"/>
<path d="M2314 965 c-11 -28 5 -44 52 -51 34 -5 48 -3 55 7 14 23 11 29 -26
45 -44 18 -74 18 -81 -1z"/>
<path d="M206 849 c-47 -37 -26 -102 34 -102 59 0 90 63 50 103 -26 26 -51 25
-84 -1z m62 -41 c-3 -25 -34 -36 -51 -19 -14 14 9 41 35 41 14 0 19 -6 16 -22z"/>
<path d="M2276 854 c-24 -23 -20 -70 6 -88 64 -45 133 29 78 84 -24 24 -63 26
-84 4z m63 -38 c8 -10 8 -16 -3 -25 -16 -13 -46 -5 -46 13 0 28 30 35 49 12z"/>
<path d="M2191 706 c-27 -50 12 -105 65 -92 14 4 30 18 36 32 26 57 -72 116
-101 60z m63 -29 c8 -12 7 -20 -2 -29 -16 -16 -47 13 -38 37 7 19 25 16 40 -8z"/>
<path d="M313 684 c-33 -23 -50 -41 -46 -50 8 -22 25 -16 73 26 32 27 42 42
35 49 -8 8 -26 0 -62 -25z"/>
<path d="M385 608 c-27 -15 -35 -28 -35 -60 0 -33 39 -63 69 -53 53 17 70 81
29 109 -26 19 -36 19 -63 4z m49 -37 c10 -16 -5 -41 -24 -41 -23 0 -32 13 -24
34 7 17 39 22 48 7z"/>
<path d="M2106 594 c-37 -37 -7 -104 47 -104 28 0 57 32 57 62 0 46 -72 75
-104 42z m63 -28 c13 -16 4 -46 -14 -46 -19 0 -38 28 -31 45 7 19 30 19 45 1z"/>
<path d="M485 485 c-29 -28 -31 -51 -9 -83 31 -45 104 -16 104 43 0 24 -7 39
-22 49 -31 22 -45 20 -73 -9z m62 -31 c3 -8 -2 -23 -11 -32 -15 -15 -17 -15
-33 0 -13 14 -14 20 -3 32 16 20 39 20 47 0z"/>
<path d="M1986 478 c-21 -29 -20 -40 5 -72 26 -33 71 -35 93 -4 22 31 20 51
-7 76 -30 29 -71 28 -91 0z m68 -31 c7 -11 7 -20 0 -27 -15 -15 -44 -2 -44 19
0 35 25 39 44 8z"/>
<path d="M625 401 c-3 -5 5 -17 17 -26 l23 -16 -27 -22 c-16 -13 -28 -28 -28
-35 0 -21 36 -13 48 11 7 12 19 32 27 43 14 20 14 23 0 38 -18 18 -51 21 -60
7z"/>
<path d="M1872 388 c-32 -32 2 -108 48 -108 25 0 60 34 60 58 0 33 -29 62 -64
62 -17 0 -37 -5 -44 -12z m63 -47 c0 -31 -21 -38 -35 -11 -13 24 -5 42 18 38
10 -2 17 -13 17 -27z"/>
<path d="M736 308 c-9 -12 -16 -29 -16 -38 0 -27 30 -60 54 -60 31 0 56 30 56
68 0 51 -65 72 -94 30z m61 -24 c3 -8 -1 -23 -10 -32 -15 -14 -17 -14 -23 1
-8 21 1 47 16 47 6 0 13 -7 17 -16z"/>
<path d="M1747 312 c-24 -26 -21 -67 5 -92 28 -25 52 -26 78 0 26 26 25 51 -1
84 -24 30 -59 34 -82 8z m57 -28 c12 -12 13 -20 6 -35 -14 -25 -27 -24 -40 2
-9 15 -8 24 1 35 14 17 14 17 33 -2z"/>
<path d="M894 259 c-3 -6 -1 -15 6 -19 9 -5 9 -17 1 -46 -11 -38 -2 -62 17
-50 5 3 13 23 17 43 3 21 9 48 12 61 4 18 1 22 -20 22 -14 0 -29 -5 -33 -11z"/>
<path d="M1607 252 c-49 -54 25 -149 77 -97 26 27 29 56 9 84 -25 32 -63 38
-86 13z m61 -45 c3 -21 -1 -27 -16 -27 -22 0 -34 22 -25 45 9 25 38 13 41 -18z"/>
<path d="M1025 216 c-21 -15 -25 -67 -5 -90 19 -24 66 -20 84 6 43 61 -20 127
-79 84z m59 -31 c7 -20 -3 -45 -19 -45 -19 0 -27 17 -20 40 7 24 30 26 39 5z"/>
<path d="M1460 210 c-26 -26 -25 -60 0 -88 32 -34 66 -28 89 16 13 25 8 54
-15 77 -21 21 -50 19 -74 -5z m58 -43 c2 -19 -1 -27 -13 -27 -19 0 -30 24 -21
46 9 23 31 11 34 -19z"/>
</g>
</svg>
